solid Untitled-5683a011
facet normal 0.0 0.0 -1.0
  outer loop
    vertex 38.541432455578175 68.5327696228299 0.0
    vertex 28.541432455578178 58.532769622829896 0.0
    vertex 28.541432455578178 68.5327696228299 0.0
  endloop
endfacet
facet normal 0.0 0.0 -1.0
  outer loop
    vertex 28.541432455578178 58.532769622829896 0.0
    vertex 38.541432455578175 68.5327696228299 0.0
    vertex 38.541432455578175 58.532769622829896 0.0
  endloop
endfacet
facet normal 1.0 0.0 0.0
  outer loop
    vertex 38.541432455578175 68.5327696228299 0.0
    vertex 38.541432455578175 58.532769622829896 10.0
    vertex 38.541432455578175 58.532769622829896 0.0
  endloop
endfacet
facet normal 1.0 0.0 0.0
  outer loop
    vertex 38.541432455578175 58.532769622829896 10.0
    vertex 38.541432455578175 68.5327696228299 0.0
    vertex 38.541432455578175 68.5327696228299 10.0
  endloop
endfacet
facet normal -0.0 -0.0 1.0
  outer loop
    vertex 38.541432455578175 58.532769622829896 10.0
    vertex 28.541432455578178 68.5327696228299 10.0
    vertex 28.541432455578178 58.532769622829896 10.0
  endloop
endfacet
facet normal -0.0 -0.0 1.0
  outer loop
    vertex 28.541432455578178 68.5327696228299 10.0
    vertex 38.541432455578175 58.532769622829896 10.0
    vertex 38.541432455578175 68.5327696228299 10.0
  endloop
endfacet
facet normal -1.0 0.0 0.0
  outer loop
    vertex 28.541432455578178 68.5327696228299 10.0
    vertex 28.541432455578178 58.532769622829896 0.0
    vertex 28.541432455578178 58.532769622829896 10.0
  endloop
endfacet
facet normal -1.0 0.0 0.0
  outer loop
    vertex 28.541432455578178 58.532769622829896 0.0
    vertex 28.541432455578178 68.5327696228299 10.0
    vertex 28.541432455578178 68.5327696228299 0.0
  endloop
endfacet
facet normal -0.0 -1.0 -0.0
  outer loop
    vertex 38.541432455578175 58.532769622829896 10.0
    vertex 28.541432455578178 58.532769622829896 0.0
    vertex 38.541432455578175 58.532769622829896 0.0
  endloop
endfacet
facet normal -0.0 -1.0 -0.0
  outer loop
    vertex 28.541432455578178 58.532769622829896 0.0
    vertex 38.541432455578175 58.532769622829896 10.0
    vertex 28.541432455578178 58.532769622829896 10.0
  endloop
endfacet
facet normal -0.0 1.0 0.0
  outer loop
    vertex 28.541432455578178 68.5327696228299 10.0
    vertex 38.541432455578175 68.5327696228299 0.0
    vertex 28.541432455578178 68.5327696228299 0.0
  endloop
endfacet
facet normal -0.0 1.0 0.0
  outer loop
    vertex 38.541432455578175 68.5327696228299 0.0
    vertex 28.541432455578178 68.5327696228299 10.0
    vertex 38.541432455578175 68.5327696228299 10.0
  endloop
endfacet
endsolid Untitled-5683a011
